<svg xmlns="http://www.w3.org/2000/svg" viewBox="73 105 94 119"><g transform="translate(97 156)"><path d="M0 0 L17 0 L17 28 Q8 31 0 28 Z" fill="#DFE8F0" stroke="#26384A" stroke-width="1.8" stroke-linecap="round" stroke-linejoin="round" /><path d="M3 2 L3 27" fill="none" stroke="#F09D54" stroke-width="2.2" stroke-linecap="round" stroke-linejoin="round" /></g><g transform="translate(97 178)"><path d="M0 0 L16 0 L15 23 Q8 25 1 23 Z" fill="#DFE8F0" stroke="#26384A" stroke-width="1.8" stroke-linecap="round" stroke-linejoin="round" /><rect x="1" y="21" width="14" height="4" rx="1" fill="#48678B" stroke="#26384A" stroke-width="1" /><path d="M3 1 L3 20" fill="none" stroke="#F09D54" stroke-width="2.2" stroke-linecap="round" stroke-linejoin="round" /></g><g transform="translate(126 156)"><path d="M0 0 L17 0 L17 28 Q8 31 0 28 Z" fill="#DFE8F0" stroke="#26384A" stroke-width="1.8" stroke-linecap="round" stroke-linejoin="round" /><path d="M3 2 L3 27" fill="none" stroke="#F09D54" stroke-width="2.2" stroke-linecap="round" stroke-linejoin="round" /></g><g transform="translate(126 178)"><path d="M0 0 L16 0 L15 23 Q8 25 1 23 Z" fill="#DFE8F0" stroke="#26384A" stroke-width="1.8" stroke-linecap="round" stroke-linejoin="round" /><rect x="1" y="21" width="14" height="4" rx="1" fill="#48678B" stroke="#26384A" stroke-width="1" /><path d="M3 1 L3 20" fill="none" stroke="#F09D54" stroke-width="2.2" stroke-linecap="round" stroke-linejoin="round" /></g><g transform="translate(0 0)"><path d="M97 115 L109 111 Q120 119 131 111 L143 115 L147 163 Q120 167 93 163 Z" fill="#DFE8F0" stroke="#26384A" stroke-width="1.8" stroke-linecap="round" stroke-linejoin="round" /><path d="M102 115 L108 112 L115 151 L110 160 L105 145 Z M132 112 L138 115 L135 145 L130 160 L125 151 Z" fill="#F09D54" stroke="#26384A" stroke-width="1.8" stroke-linecap="round" stroke-linejoin="round" /><path d="M110 114 Q120 125 130 114" fill="none" stroke="#48678B" stroke-width="4" stroke-linecap="round" stroke-linejoin="round" /><rect x="111" y="130" width="18" height="16" rx="3" fill="#48678B" stroke="#26384A" stroke-width="1.5" /><rect x="115" y="134" width="10" height="4" rx="1" fill="#B5E4E1" stroke="none" stroke-width="1.5" /><circle cx="103" cy="131" r="4" fill="#F09D54" stroke="#26384A" stroke-width="1.2" /><path d="M100 130 Q103 126 106 130 M100 132 Q103 136 106 132" fill="none" stroke="#F5F5E9" stroke-width="1" stroke-linecap="round" stroke-linejoin="round" /><rect x="95" y="158" width="50" height="7" rx="2" fill="#48678B" stroke="#26384A" stroke-width="1.5" /><rect x="115" y="159" width="10" height="5" rx="1" fill="#F09D54" stroke="#26384A" stroke-width="0.8" /><path d="M94 156 Q120 160 146 156 L145 181 L125 182 L121 170 L117 182 L95 181 Z" fill="#DFE8F0" stroke="#26384A" stroke-width="1.8" stroke-linecap="round" stroke-linejoin="round" /></g><g transform="translate(90 123)"><path d="M0 0 Q8 -4 16 0 L17 31 Q8 34 -1 31 Z" fill="#DFE8F0" stroke="#26384A" stroke-width="1.8" stroke-linecap="round" stroke-linejoin="round" /><path d="M13 1 L14 27" fill="none" stroke="#F09D54" stroke-width="2.3" stroke-linecap="round" stroke-linejoin="round" /></g><g transform="translate(90 148)"><path d="M0 0 Q8 -3 16 0 L15 20 Q8 23 1 20 Z" fill="#DFE8F0" stroke="#26384A" stroke-width="1.8" stroke-linecap="round" stroke-linejoin="round" /><rect x="1" y="18" width="14" height="6" rx="2" fill="#48678B" stroke="#26384A" stroke-width="1.1" /></g><g transform="translate(134 123)"><path d="M0 0 Q8 -4 16 0 L17 31 Q8 34 -1 31 Z" fill="#DFE8F0" stroke="#26384A" stroke-width="1.8" stroke-linecap="round" stroke-linejoin="round" /><path d="M13 1 L14 27" fill="none" stroke="#F09D54" stroke-width="2.3" stroke-linecap="round" stroke-linejoin="round" /></g><g transform="translate(134 148)"><path d="M0 0 Q8 -3 16 0 L15 20 Q8 23 1 20 Z" fill="#DFE8F0" stroke="#26384A" stroke-width="1.8" stroke-linecap="round" stroke-linejoin="round" /><rect x="1" y="18" width="14" height="6" rx="2" fill="#48678B" stroke="#26384A" stroke-width="1.1" /></g></svg>
